<svg id="Capa_1" enable-background="new 0 0 512 512" height="512" viewBox="0 0 512 512" width="512" xmlns="http://www.w3.org/2000/svg"><g><g><path d="m350.17 473.06h-188.34l46.17-44.05v-59.95h96v59.95z" fill="#d8e5ef"/></g><path d="m350.17 473.06h-94.17v-104h48v59.95z" fill="#bfd0d8"/><path d="m512 325.06v64h-512v-64l256-13.97z" fill="#eff4f9"/><path d="m512 325.06v64h-256v-77.97z" fill="#d8e5ef"/><path d="m135.5 456.94h241v30h-241z" fill="#eff4f9"/><path d="m256 456.94h120.5v30h-120.5z" fill="#d8e5ef"/><path d="m0 25.06v300h512v-300z" fill="#54528e"/><path d="m256 25.06h256v300h-256z" fill="#443c67"/><path d="m30 55.06h452v240h-452z" fill="#00d9fa"/><path d="m256 55.06h226v240h-226z" fill="#40a9d4"/><path d="m241 98.5h30v30h-30z" fill="#eff4f9"/><path d="m299.528 98.498h152.222v30h-152.222z" fill="#d8e5ef"/><path d="m299.528 218.998h152.222v30h-152.222z" fill="#d8e5ef"/><path d="m241 158.75h30v30h-30z" fill="#eff4f9"/><path d="m241 219h30v30h-30z" fill="#eff4f9"/><g fill="#d8e5ef"><path d="m299.528 158.748h122.097v30h-122.097z"/><path d="m256 98.5h15v30h-15z"/><path d="m256 158.75h15v30h-15z"/><path d="m256 219h15v30h-15z"/></g><path d="m210.75 205.823v51.44h-150.5v-51.44l75.25-42.62z" fill="#ff5754"/><circle cx="135.5" cy="138.233" fill="#fed9b6" r="48"/></g></svg>